<svg xmlns="http://www.w3.org/2000/svg" width="246" height="110" viewBox="0 0 246 110" fill="none">
<circle cx="55" cy="55" r="55" fill="#FF4D00"/>
<path d="M232.572 83C231.505 83 230.642 82.7331 229.986 82.1993C229.329 81.6655 229 80.947 229 80.0436C229 79.4277 229.175 78.9247 229.524 78.5347C229.893 78.1651 230.345 77.9803 230.879 77.9803C231.269 77.9803 231.618 78.0625 231.926 78.2267C232.234 78.391 232.48 78.6373 232.665 78.9658C232.357 79.3969 232.203 79.8486 232.203 80.3208C232.203 80.7314 232.336 81.0702 232.603 81.3371C232.87 81.604 233.209 81.7374 233.619 81.7374C234.112 81.7374 234.533 81.5732 234.882 81.2447C235.252 80.9162 235.58 80.3413 235.867 79.5201L237.715 74.2233L230.571 59.0103L228.507 58.7023V58.0864H236.175V58.7023L234.02 59.0719L239.163 70.0659L242.827 59.4722L240.179 58.7023V58.0864H245.722V58.7023L243.628 59.4722L236.73 79.5201C236.299 80.7314 235.775 81.6142 235.159 82.1685C234.564 82.7229 233.702 83 232.572 83Z" fill="#5F5F5F"/>
<path d="M201.244 73.3918L203.4 73.0838V58.9795L201.244 58.6715V58.0556H206.48V60.8888C207.219 59.9239 208.05 59.1642 208.974 58.6099C209.918 58.0556 210.935 57.7784 212.023 57.7784C213.275 57.7784 214.291 58.0556 215.072 58.6099C215.872 59.1437 216.375 59.9547 216.581 61.0428C217.32 60.0368 218.161 59.2464 219.106 58.6715C220.05 58.0761 221.087 57.7784 222.216 57.7784C223.674 57.7784 224.803 58.148 225.604 58.8871C226.425 59.6056 226.835 60.704 226.835 62.1822V73.0838L228.991 73.3918V74.0077H221.908V73.3918L223.756 73.0838V62.2438C223.756 61.1557 223.561 60.3242 223.171 59.7494C222.781 59.1745 222.144 58.8871 221.261 58.8871C220.42 58.8871 219.599 59.1745 218.798 59.7494C218.018 60.3242 217.309 61.0633 216.673 61.9666V73.0838L218.521 73.3918V74.0077H211.715V73.3918L213.563 73.0838V62.2438C213.563 61.1557 213.368 60.3242 212.977 59.7494C212.587 59.1745 211.951 58.8871 211.068 58.8871C210.226 58.8871 209.405 59.1745 208.605 59.7494C207.824 60.3242 207.116 61.0633 206.48 61.9666V73.0838L208.327 73.3918V74.0077H201.244V73.3918Z" fill="#5F5F5F"/>
<path d="M193.221 74.3156C191.701 74.3156 190.326 73.9769 189.094 73.2994C187.862 72.6014 186.887 71.6262 186.168 70.3738C185.45 69.1215 185.091 67.6741 185.091 66.0316C185.091 64.3892 185.44 62.9521 186.138 61.7203C186.856 60.4679 187.811 59.503 189.002 58.8255C190.213 58.1275 191.558 57.7784 193.036 57.7784C194.329 57.7784 195.489 58.0659 196.516 58.6407C197.542 59.2156 198.343 60.0163 198.918 61.0428C199.493 62.0488 199.79 63.2087 199.811 64.5227H188.478V67.5714C188.478 69.3781 188.878 70.846 189.679 71.9752C190.5 73.0838 191.681 73.6381 193.221 73.6381C194.637 73.6381 195.89 73.2378 196.978 72.4371C198.066 71.6364 198.733 70.5997 198.979 69.3268H199.688C199.4 70.846 198.671 72.0573 197.501 72.9606C196.331 73.864 194.904 74.3156 193.221 74.3156ZM196.423 63.7528C196.423 61.9666 196.146 60.6424 195.592 59.7802C195.038 58.8973 194.175 58.4559 193.005 58.4559C191.629 58.4559 190.562 58.9384 189.802 59.9033C189.043 60.8683 188.612 62.1514 188.509 63.7528H196.423Z" fill="#5F5F5F"/>
<path d="M173.308 74.3156C171.851 74.3156 170.567 73.9769 169.459 73.2994C168.35 72.6013 167.488 71.6364 166.872 70.4046C166.256 69.1522 165.948 67.6946 165.948 66.0316C165.948 64.3687 166.256 62.9213 166.872 61.6895C167.488 60.4371 168.35 59.4722 169.459 58.7947C170.567 58.1172 171.851 57.7784 173.308 57.7784C174.499 57.7784 175.536 58.0966 176.419 58.7331C177.301 59.349 177.999 60.201 178.513 61.2891V50.2951L176.357 49.9872V49.3712H181.592V73.0838L183.748 73.3918V74.0077H178.513V70.8049C177.999 71.893 177.301 72.7553 176.419 73.3918C175.536 74.0077 174.499 74.3156 173.308 74.3156ZM173.616 73.5457C174.52 73.5457 175.33 73.2891 176.049 72.7759C176.788 72.2421 177.373 71.544 177.804 70.6818C178.256 69.799 178.492 68.8443 178.513 67.8178V64.2763C178.492 63.2498 178.256 62.3054 177.804 61.4431C177.373 60.5603 176.788 59.8623 176.049 59.349C175.33 58.8152 174.52 58.5483 173.616 58.5483C170.762 58.5483 169.336 60.5295 169.336 64.4919V67.5714C169.336 71.5543 170.762 73.5457 173.616 73.5457Z" fill="#5F5F5F"/>
<path d="M153.68 74.3156C152.366 74.3156 151.288 73.9769 150.446 73.2994C149.604 72.6014 149.184 71.5748 149.184 70.2198C149.184 68.29 149.995 66.9247 151.616 66.124C153.238 65.3028 155.117 64.8922 157.252 64.8922H159.315V62.521C159.315 61.4534 159.192 60.6322 158.946 60.0573C158.72 59.4619 158.361 59.0513 157.868 58.8255C157.375 58.5791 156.708 58.4559 155.866 58.4559C154.901 58.4559 154.183 58.651 153.711 59.0411C153.238 59.4106 153.002 59.9136 153.002 60.55C153.002 61.1454 153.29 61.5355 153.865 61.7203C153.865 62.2335 153.669 62.6852 153.279 63.0753C152.889 63.4654 152.427 63.6604 151.894 63.6604C151.319 63.6604 150.857 63.5064 150.508 63.1985C150.159 62.87 149.984 62.3772 149.984 61.7203C149.984 60.5295 150.58 59.5748 151.77 58.8563C152.961 58.1377 154.45 57.7784 156.236 57.7784C160.342 57.7784 162.395 59.5646 162.395 63.1369V71.9444C162.395 72.3961 162.487 72.7451 162.672 72.9914C162.877 73.2173 163.165 73.3302 163.534 73.3302C163.883 73.3302 164.16 73.2173 164.366 72.9914C164.571 72.7451 164.674 72.4166 164.674 72.006H165.32C165.32 72.7245 165.084 73.2891 164.612 73.6997C164.16 74.1103 163.524 74.3156 162.703 74.3156C161.758 74.3156 160.958 74.0487 160.301 73.515C159.664 72.9606 159.336 72.1086 159.315 70.9589C158.823 72.006 158.063 72.8272 157.036 73.4226C156.03 74.018 154.912 74.3156 153.68 74.3156ZM155.373 72.9606C155.928 72.9606 156.492 72.7964 157.067 72.4679C157.663 72.1394 158.166 71.6672 158.576 71.0513C158.987 70.4149 159.233 69.6553 159.315 68.7724V65.5697H157.252C155.569 65.5697 154.306 65.9495 153.464 66.7091C152.643 67.4482 152.232 68.4953 152.232 69.8503C152.232 70.9795 152.499 71.7801 153.033 72.2523C153.567 72.7245 154.347 72.9606 155.373 72.9606Z" fill="#5F5F5F"/>
<path d="M141.293 74.3156C139.815 74.3156 138.47 73.9769 137.259 73.2994C136.047 72.6014 135.082 71.6262 134.364 70.3738C133.666 69.1009 133.317 67.6535 133.317 66.0316C133.317 64.3276 133.686 62.8494 134.425 61.5971C135.185 60.3447 136.17 59.4003 137.382 58.7639C138.593 58.1069 139.897 57.7784 141.293 57.7784C142.463 57.7784 143.531 57.9837 144.496 58.3944C145.46 58.7844 146.22 59.3387 146.774 60.0573C147.349 60.7759 147.637 61.5868 147.637 62.4902C147.637 63.1677 147.462 63.6912 147.113 64.0607C146.764 64.4097 146.302 64.5843 145.727 64.5843C145.173 64.5843 144.711 64.3995 144.342 64.0299C143.972 63.6604 143.787 63.1985 143.787 62.6441C144.095 62.4388 144.311 62.213 144.434 61.9666C144.557 61.7203 144.619 61.4123 144.619 61.0428C144.619 60.2831 144.311 59.6672 143.695 59.195C143.099 58.7023 142.299 58.4559 141.293 58.4559C139.815 58.4559 138.675 58.9897 137.875 60.0573C137.094 61.1044 136.704 62.5825 136.704 64.4919V67.5714C136.704 69.3986 137.084 70.8665 137.844 71.9752C138.624 73.0838 139.774 73.6381 141.293 73.6381C142.689 73.6381 143.9 73.2481 144.927 72.4679C145.974 71.6672 146.62 70.6202 146.867 69.3268H147.575C147.288 70.846 146.569 72.0573 145.419 72.9606C144.29 73.864 142.915 74.3156 141.293 74.3156Z" fill="#5F5F5F"/>
<path d="M110.544 74.0077V73.361L113.562 72.1292L122.462 48.7554H122.955L131.362 72.8991L134.195 73.361V74.0077H125.141V73.361L127.667 72.9607L125.049 65.6621H116.857L114.363 72.1292L117.134 73.361V74.0077H110.544ZM117.104 65.0154H124.833L121.138 54.1754L117.104 65.0154Z" fill="#5F5F5F"/>
<path d="M83.2406 74.4952C81.1602 74.4952 79.4536 73.9589 78.1208 72.8862C76.7881 71.781 76.1217 70.1556 76.1217 68.0102C76.1217 64.9546 77.4057 62.7929 79.9737 61.5252C82.5417 60.2249 85.5161 59.5748 88.8967 59.5748H92.1636V55.8203C92.1636 54.13 91.9686 52.8297 91.5785 51.9196C91.2209 50.9769 90.6521 50.3267 89.8719 49.9692C89.0918 49.5791 88.0353 49.3841 86.7025 49.3841C85.1747 49.3841 84.037 49.6929 83.2894 50.3105C82.5417 50.8956 82.1679 51.692 82.1679 52.6997C82.1679 53.6424 82.623 54.26 83.5332 54.5526C83.5332 55.3652 83.2244 56.0804 82.6067 56.698C81.9891 57.3156 81.2577 57.6244 80.4125 57.6244C79.5024 57.6244 78.771 57.3806 78.2184 56.893C77.6658 56.3729 77.3895 55.5928 77.3895 54.5526C77.3895 52.6672 78.3321 51.1557 80.2175 50.0179C82.1029 48.8802 84.4596 48.3113 87.2876 48.3113C93.7889 48.3113 97.0396 51.1394 97.0396 56.7955V70.7408C97.0396 71.4559 97.1858 72.0085 97.4784 72.3986C97.8035 72.7562 98.2586 72.9349 98.8437 72.9349C99.3963 72.9349 99.8351 72.7562 100.16 72.3986C100.485 72.0085 100.648 71.4884 100.648 70.8383H101.672C101.672 71.976 101.298 72.8699 100.55 73.5201C99.8351 74.1702 98.8274 74.4952 97.5272 74.4952C96.0319 74.4952 94.7641 74.0727 93.7239 73.2275C92.7162 72.3498 92.1961 71.0008 92.1636 69.1804C91.3835 70.8383 90.1807 72.1385 88.5554 73.0812C86.9626 74.0239 85.191 74.4952 83.2406 74.4952ZM85.9224 72.3498C86.8001 72.3498 87.694 72.0898 88.6042 71.5697C89.5468 71.0496 90.3432 70.3019 90.9934 69.3267C91.6435 68.319 92.0336 67.1163 92.1636 65.7185V60.6475H88.8967C86.2312 60.6475 84.232 61.2489 82.8993 62.4516C81.599 63.6219 80.9489 65.2797 80.9489 67.4251C80.9489 69.213 81.3715 70.4807 82.2167 71.2284C83.0618 71.976 84.2971 72.3498 85.9224 72.3498Z" fill="white"/>
<path d="M64.3597 74.4952C62.0192 74.4952 59.8901 73.9589 57.9722 72.8862C56.0543 71.781 54.5265 70.2369 53.3888 68.254C52.2836 66.2386 51.731 63.9469 51.731 61.3789C51.731 58.6809 52.3161 56.3404 53.4863 54.3575C54.689 52.3746 56.2493 50.8793 58.1672 49.8716C60.0851 48.8314 62.1493 48.3113 64.3597 48.3113C66.2126 48.3113 67.9029 48.6364 69.4307 49.2865C70.9585 49.9042 72.1612 50.7818 73.0389 51.9196C73.9491 53.0573 74.4042 54.3413 74.4042 55.7716C74.4042 56.8443 74.1279 57.6732 73.5753 58.2583C73.0227 58.8109 72.2913 59.0872 71.3811 59.0872C70.5034 59.0872 69.772 58.7947 69.1869 58.2095C68.6018 57.6244 68.3092 56.893 68.3092 56.0154C68.7968 55.6903 69.1381 55.3327 69.3332 54.9426C69.5282 54.5526 69.6257 54.065 69.6257 53.4799C69.6257 52.2771 69.1381 51.3019 68.1629 50.5543C67.2203 49.7741 65.9525 49.3841 64.3597 49.3841C62.0192 49.3841 60.2151 50.2292 58.9474 51.9196C57.7121 53.5774 57.0945 55.9178 57.0945 58.9409V63.8169C57.0945 66.71 57.6959 69.0342 58.8986 70.7895C60.1339 72.5449 61.9542 73.4225 64.3597 73.4225C66.5701 73.4225 68.488 72.8049 70.1133 71.5697C71.7712 70.3019 72.7951 68.6441 73.1852 66.5962H74.3067C73.8516 69.0017 72.7138 70.9195 70.8935 72.3498C69.1056 73.7801 66.9277 74.4952 64.3597 74.4952Z" fill="white"/>
<path d="M43.78 43.0941C42.8698 43.0941 42.0896 42.7853 41.4395 42.1677C40.7894 41.5175 40.4643 40.7374 40.4643 39.8272C40.4643 38.917 40.7731 38.1531 41.3907 37.5355C42.0409 36.9179 42.8373 36.6091 43.78 36.6091C44.6576 36.6091 45.4053 36.9179 46.0229 37.5355C46.6405 38.1531 46.9493 38.917 46.9493 39.8272C46.9493 40.7374 46.6405 41.5175 46.0229 42.1677C45.4053 42.7853 44.6576 43.0941 43.78 43.0941ZM38.6115 74.0077V73.0325L42.0246 72.5449V50.2618L38.6115 49.7742V48.799H46.9006V72.5449L50.3138 73.0325V74.0077H38.6115Z" fill="white"/>
<path d="M8 74.0077V72.9837L12.4859 72.2523V36.7553L8 36.0727V35H22.3353V36.0727L17.8494 36.7553V72.8374H32.4286L36.4268 62.1103H37.7434V74.0077H8Z" fill="white"/>
</svg>